<svg id="visual" viewBox="0 0 960 300" width="960" height="300" xmlns="http://www.w3.org/2000/svg" xmlns:xlink="http://www.w3.org/1999/xlink" version="1.1"><rect x="0" y="0" width="960" height="300" fill="#202731"></rect><path d="M0 221L22.8 217C45.7 213 91.3 205 137 198.8C182.7 192.7 228.3 188.3 274 188C319.7 187.7 365.3 191.3 411.2 197.8C457 204.3 503 213.7 548.8 210.8C594.7 208 640.3 193 686 192.7C731.7 192.3 777.3 206.7 823 212.3C868.7 218 914.3 215 937.2 213.5L960 212L960 301L937.2 301C914.3 301 868.7 301 823 301C777.3 301 731.7 301 686 301C640.3 301 594.7 301 548.8 301C503 301 457 301 411.2 301C365.3 301 319.7 301 274 301C228.3 301 182.7 301 137 301C91.3 301 45.7 301 22.8 301L0 301Z" fill="#fa7268"></path><path d="M0 198L22.8 199.3C45.7 200.7 91.3 203.3 137 209.2C182.7 215 228.3 224 274 223.5C319.7 223 365.3 213 411.2 209.7C457 206.3 503 209.7 548.8 213.8C594.7 218 640.3 223 686 223.8C731.7 224.7 777.3 221.3 823 219.7C868.7 218 914.3 218 937.2 218L960 218L960 301L937.2 301C914.3 301 868.7 301 823 301C777.3 301 731.7 301 686 301C640.3 301 594.7 301 548.8 301C503 301 457 301 411.2 301C365.3 301 319.7 301 274 301C228.3 301 182.7 301 137 301C91.3 301 45.7 301 22.8 301L0 301Z" fill="#ef5f67"></path><path d="M0 226L22.8 229.2C45.7 232.3 91.3 238.7 137 240.2C182.7 241.7 228.3 238.3 274 239.5C319.7 240.7 365.3 246.3 411.2 248.2C457 250 503 248 548.8 245.8C594.7 243.7 640.3 241.3 686 241.7C731.7 242 777.3 245 823 243.5C868.7 242 914.3 236 937.2 233L960 230L960 301L937.2 301C914.3 301 868.7 301 823 301C777.3 301 731.7 301 686 301C640.3 301 594.7 301 548.8 301C503 301 457 301 411.2 301C365.3 301 319.7 301 274 301C228.3 301 182.7 301 137 301C91.3 301 45.7 301 22.8 301L0 301Z" fill="#e34c67"></path><path d="M0 268L22.8 267.5C45.7 267 91.3 266 137 266C182.7 266 228.3 267 274 266.2C319.7 265.3 365.3 262.7 411.2 260.3C457 258 503 256 548.8 253C594.7 250 640.3 246 686 247.8C731.7 249.7 777.3 257.3 823 261.8C868.7 266.3 914.3 267.7 937.2 268.3L960 269L960 301L937.2 301C914.3 301 868.7 301 823 301C777.3 301 731.7 301 686 301C640.3 301 594.7 301 548.8 301C503 301 457 301 411.2 301C365.3 301 319.7 301 274 301C228.3 301 182.7 301 137 301C91.3 301 45.7 301 22.8 301L0 301Z" fill="#d53867"></path><path d="M0 278L22.8 277.7C45.7 277.3 91.3 276.7 137 277.5C182.7 278.3 228.3 280.7 274 280C319.7 279.3 365.3 275.7 411.2 274.8C457 274 503 276 548.8 276.2C594.7 276.3 640.3 274.7 686 272C731.7 269.3 777.3 265.7 823 264.8C868.7 264 914.3 266 937.2 267L960 268L960 301L937.2 301C914.3 301 868.7 301 823 301C777.3 301 731.7 301 686 301C640.3 301 594.7 301 548.8 301C503 301 457 301 411.2 301C365.3 301 319.7 301 274 301C228.3 301 182.7 301 137 301C91.3 301 45.7 301 22.8 301L0 301Z" fill="#c62368"></path></svg>